<?xml version="1.0" standalone="no"?>
<!DOCTYPE svg PUBLIC "-//W3C//DTD SVG 20010904//EN"
 "http://www.w3.org/TR/2001/REC-SVG-20010904/DTD/svg10.dtd">
<svg version="1.0" xmlns="http://www.w3.org/2000/svg"
 width="864.000000pt" height="864.000000pt" viewBox="0 0 864.000000 864.000000"
 preserveAspectRatio="xMidYMid meet">
<metadata>
Created by potrace 1.14, written by Peter Selinger 2001-2017
</metadata>
<g transform="translate(0.000000,864.000000) scale(0.100000,-0.100000)"
fill="#000000" stroke="none">
<path d="M4078 8635 c-2 -2 -43 -6 -93 -9 -116 -8 -301 -32 -440 -57 -104 -18
-383 -83 -415 -96 -8 -3 -23 -8 -32 -9 -25 -5 -291 -95 -303 -102 -5 -4 -12
-7 -15 -7 -34 -2 -442 -193 -572 -267 -103 -59 -223 -132 -228 -138 -3 -4 -24
-17 -47 -30 -24 -13 -43 -27 -43 -32 0 -4 -4 -8 -9 -8 -22 0 -336 -244 -454
-353 -125 -115 -276 -269 -367 -375 -25 -29 -58 -68 -75 -86 -16 -18 -37 -44
-45 -56 -8 -13 -34 -47 -57 -76 -24 -29 -43 -57 -43 -63 0 -6 -4 -11 -9 -11
-5 0 -20 -17 -32 -37 -13 -21 -25 -40 -29 -43 -12 -12 -152 -232 -196 -310
-26 -47 -54 -93 -62 -102 -8 -10 -12 -18 -9 -18 3 0 -22 -55 -57 -122 -70
-139 -122 -258 -119 -270 2 -4 -2 -8 -7 -8 -5 0 -9 -3 -8 -7 0 -5 -2 -17 -7
-28 -69 -175 -163 -469 -181 -573 -3 -13 -11 -49 -20 -80 -8 -32 -17 -73 -20
-92 -3 -19 -11 -66 -19 -105 -8 -38 -17 -95 -20 -125 -3 -30 -10 -84 -15 -120
-30 -220 -34 -808 -6 -955 2 -11 7 -47 10 -80 10 -84 15 -123 26 -180 5 -27
12 -63 15 -80 4 -27 13 -73 31 -155 2 -14 18 -77 35 -140 17 -63 32 -122 34
-130 2 -8 10 -35 19 -60 9 -25 19 -54 21 -66 3 -11 16 -51 31 -90 14 -38 27
-73 28 -79 2 -5 8 -23 15 -40 7 -16 24 -59 38 -95 38 -98 178 -383 234 -478
27 -45 49 -87 49 -92 0 -6 5 -10 10 -10 6 0 10 -5 10 -10 0 -6 22 -44 50 -86
27 -41 50 -80 50 -85 0 -5 4 -9 8 -9 4 0 16 -13 25 -30 39 -65 225 -305 289
-372 10 -10 18 -20 18 -22 0 -5 120 -133 191 -205 93 -94 263 -247 334 -302
45 -35 48 -37 80 -65 17 -14 42 -32 58 -42 15 -9 27 -20 27 -24 0 -4 5 -8 12
-8 6 0 21 -8 32 -19 37 -33 257 -175 376 -243 181 -103 480 -246 540 -260 8
-2 17 -5 20 -8 3 -3 21 -11 40 -17 19 -7 82 -28 140 -48 176 -62 488 -144 605
-161 17 -2 41 -6 55 -9 57 -11 77 -14 125 -20 28 -3 64 -8 80 -11 257 -38 772
-40 1035 -4 36 5 92 12 125 16 33 3 63 8 66 10 3 1 28 6 55 9 27 4 65 10 84
15 19 5 51 12 70 15 19 3 87 19 150 36 63 16 126 32 139 35 13 3 82 24 155 48
196 65 362 132 539 218 53 26 100 47 103 47 4 0 10 3 13 8 3 4 31 21 61 37 64
34 243 138 250 146 3 3 17 11 33 19 15 8 27 18 27 23 0 4 5 8 11 8 11 0 219
145 255 178 10 9 35 29 54 43 19 15 45 35 57 45 12 11 41 35 64 54 121 100
332 312 465 466 80 92 88 102 169 209 25 33 52 68 60 78 8 9 15 21 15 26 0 5
3 11 8 13 10 4 154 223 193 293 9 17 26 46 38 65 45 74 211 421 256 535 59
151 146 412 160 482 2 10 14 63 28 118 32 126 68 329 82 458 4 32 8 67 10 78
25 129 25 769 1 919 -3 14 -7 48 -10 75 -14 113 -18 143 -32 212 -8 39 -17 89
-20 110 -7 50 -58 257 -85 347 -12 39 -22 76 -24 81 -1 6 -5 17 -8 25 -3 8
-17 49 -30 91 -94 281 -291 690 -439 911 -21 31 -38 61 -38 67 0 5 -3 11 -7
13 -5 2 -28 32 -53 68 -24 36 -48 70 -52 75 -4 6 -41 54 -82 107 -158 204
-267 322 -549 591 -16 15 -32 27 -37 27 -5 0 -10 3 -12 8 -6 14 -125 112 -136
112 -7 0 -12 4 -12 8 0 10 -141 116 -260 195 -47 31 -90 60 -96 64 -82 60
-421 239 -594 316 -192 84 -565 210 -694 233 -16 3 -32 7 -36 9 -4 2 -22 7
-41 10 -19 3 -54 11 -79 16 -43 10 -61 13 -131 24 -17 2 -38 7 -48 9 -9 3 -43
8 -76 12 -33 3 -68 8 -77 9 -9 2 -45 7 -80 10 -35 4 -83 9 -108 11 -47 5 -587
13 -592 9z"/>
</g>
</svg>
